<svg width="33" height="33" viewBox="0 0 33 33" fill="none" xmlns="http://www.w3.org/2000/svg">
<path fill-rule="evenodd" clip-rule="evenodd" d="M3.22577 1.25443C3.22577 1.04353 3.40287 0.872559 3.62134 0.872559H32.1027C32.3211 0.872559 32.4982 1.04353 32.4982 1.25443V28.8765C32.4982 29.0874 32.3211 29.2584 32.1027 29.2584C31.8842 29.2584 31.7071 29.0874 31.7071 28.8765V1.6363H3.62134C3.40287 1.6363 3.22577 1.46533 3.22577 1.25443Z" fill="white" stroke="white" stroke-width="0.5" stroke-linecap="round" stroke-linejoin="round"/>
<path d="M3.64092 29.4348L3.76592 29.4348L3.76592 29.3098L3.76592 5.55248L5.37985 7.17671C5.58199 7.38014 5.91006 7.38014 6.1122 7.17671C6.3139 6.97372 6.3139 6.64493 6.1122 6.44194L3.61464 3.92845C3.4125 3.72501 3.08443 3.72501 2.88229 3.92845L0.384736 6.44194C0.183032 6.64493 0.183033 6.97372 0.384736 7.17671C0.586878 7.38014 0.914945 7.38014 1.11709 7.17671L2.73101 5.55248L2.73101 29.3098L2.73101 29.4348L2.85601 29.4348L3.64092 29.4348Z" fill="white" stroke="white" stroke-width="0.25"/>
<path d="M2.73004 29.704V29.829H2.85504L26.5861 29.829L24.9621 31.455C24.7593 31.658 24.7593 31.9871 24.9621 32.1902C25.165 32.3933 25.494 32.3933 25.6969 32.1902L28.2075 29.6767C28.4103 29.4736 28.4103 29.1445 28.2075 28.9415L25.6969 26.428C25.494 26.2248 25.165 26.2248 24.9621 26.428C24.7593 26.631 24.7593 26.9601 24.9621 27.1632L26.5861 28.7891L2.85504 28.7891H2.73004V28.9141V29.704Z" fill="white" stroke="white" stroke-width="0.25"/>
<path fill-rule="evenodd" clip-rule="evenodd" d="M14.0687 0.988239C14.2219 1.14248 14.2219 1.39255 14.0687 1.54679L9.35923 6.28629C9.20597 6.44053 8.95748 6.44053 8.80422 6.28629C8.65095 6.13205 8.65095 5.88197 8.80422 5.72773L13.5137 0.988239C13.6669 0.833998 13.9154 0.833998 14.0687 0.988239Z" fill="white" stroke="white" stroke-width="0.5" stroke-linecap="round" stroke-linejoin="round"/>
<path fill-rule="evenodd" clip-rule="evenodd" d="M32.2524 19.8149C32.4057 19.9692 32.4057 20.2192 32.2524 20.3735L27.9355 24.718C27.7822 24.8722 27.5337 24.8722 27.3804 24.718C27.2272 24.5638 27.2272 24.3137 27.3804 24.1594L31.6974 19.8149C31.8507 19.6607 32.0992 19.6607 32.2524 19.8149Z" fill="white" stroke="white" stroke-width="0.5" stroke-linecap="round" stroke-linejoin="round"/>
<path fill-rule="evenodd" clip-rule="evenodd" d="M19.9538 0.986466C20.108 1.13972 20.1096 1.38979 19.9573 1.54501L9.75351 11.9456C9.60123 12.1008 9.35274 12.1024 9.19851 11.9491C9.04427 11.7959 9.04269 11.5458 9.19497 11.3906L19.3988 0.990024C19.551 0.834804 19.7995 0.833211 19.9538 0.986466Z" fill="white" stroke="white" stroke-width="0.5" stroke-linecap="round" stroke-linejoin="round"/>
<path fill-rule="evenodd" clip-rule="evenodd" d="M32.3832 13.2317C32.5365 13.3859 32.5365 13.636 32.3832 13.7902L22.4411 23.7958C22.2878 23.9501 22.0393 23.9501 21.8861 23.7958C21.7328 23.6416 21.7328 23.3915 21.8861 23.2373L31.8282 13.2317C31.9815 13.0775 32.23 13.0775 32.3832 13.2317Z" fill="white" stroke="white" stroke-width="0.5" stroke-linecap="round" stroke-linejoin="round"/>
<path fill-rule="evenodd" clip-rule="evenodd" d="M26.237 1.12217C26.3891 1.27765 26.3871 1.52771 26.2326 1.6807L9.88036 17.874C9.72587 18.027 9.47739 18.0249 9.32536 17.8695C9.17334 17.714 9.17535 17.4639 9.32984 17.3109L25.682 1.11766C25.8365 0.964672 26.085 0.966689 26.237 1.12217Z" fill="white" stroke="white" stroke-width="0.5" stroke-linecap="round" stroke-linejoin="round"/>
<path fill-rule="evenodd" clip-rule="evenodd" d="M32.3833 7.04436C32.5366 7.1986 32.5366 7.44867 32.3833 7.60292L15.9003 24.1911C15.747 24.3454 15.4986 24.3454 15.3453 24.1911C15.192 24.0369 15.192 23.7868 15.3453 23.6326L31.8283 7.04436C31.9816 6.89012 32.2301 6.89012 32.3833 7.04436Z" fill="white" stroke="white" stroke-width="0.5" stroke-linecap="round" stroke-linejoin="round"/>
<path fill-rule="evenodd" clip-rule="evenodd" d="M32.1217 1.11991C32.2749 1.27415 32.2749 1.52422 32.1217 1.67846L9.62101 24.3227C9.46775 24.4769 9.21926 24.4769 9.066 24.3227C8.91273 24.1685 8.91273 23.9184 9.066 23.7641L31.5666 1.11991C31.7199 0.965667 31.9684 0.965667 32.1217 1.11991Z" fill="white" stroke="white" stroke-width="0.5" stroke-linecap="round" stroke-linejoin="round"/>
</svg>
