<svg width="34" height="33" viewBox="0 0 34 33" fill="none" xmlns="http://www.w3.org/2000/svg">
<path d="M24.5841 3.07222C24.323 1.81896 23.1891 0.872559 21.8328 0.872559C21.5228 0.872559 21.2712 1.11837 21.2712 1.42247C21.2712 1.72658 21.5228 1.97239 21.8328 1.97239C22.7617 1.97239 23.5176 2.71258 23.5176 3.62214C23.5176 4.5317 22.7617 5.27189 21.8328 5.27189C21.5228 5.27189 21.2712 5.5177 21.2712 5.8218C21.2712 6.12591 21.5228 6.37172 21.8328 6.37172C23.1885 6.37172 24.323 5.42531 24.5841 4.17205H31.9417V9.1213H1.61494V4.17205H9.47745H11.1623C11.4723 4.17205 11.7239 3.92624 11.7239 3.62214C11.7239 3.31804 11.4723 3.07222 11.1623 3.07222H10.1424C10.3749 2.43322 10.9927 1.97239 11.7239 1.97239C12.6528 1.97239 13.4087 2.71258 13.4087 3.62214C13.4087 4.5317 12.6528 5.27189 11.7239 5.27189C11.4139 5.27189 11.1623 5.5177 11.1623 5.8218C11.1623 6.12591 11.4139 6.37172 11.7239 6.37172C13.2722 6.37172 14.5319 5.13826 14.5319 3.62214C14.5319 2.10602 13.2722 0.872559 11.7239 0.872559C10.3682 0.872559 9.23371 1.81896 8.97256 3.07222H0.49173V10.2211V32.2178H33.0649V10.2211V3.07222H24.5841ZM31.9417 31.1179H1.61494V10.2211H31.9417V31.1179Z" fill="white"/>
<path d="M15.0936 1.97239C16.0225 1.97239 16.7784 2.71258 16.7784 3.62214C16.7784 4.5317 16.0225 5.27189 15.0936 5.27189C14.7836 5.27189 14.532 5.5177 14.532 5.8218C14.532 6.12591 14.7836 6.37172 15.0936 6.37172C16.6419 6.37172 17.9016 5.13826 17.9016 3.62214C17.9016 2.10602 16.6419 0.872559 15.0936 0.872559C14.7836 0.872559 14.532 1.11837 14.532 1.42247C14.532 1.72658 14.7836 1.97239 15.0936 1.97239Z" fill="white"/>
<path d="M18.4632 1.97239C19.3921 1.97239 20.148 2.71258 20.148 3.62214C20.148 4.5317 19.3921 5.27189 18.4632 5.27189C18.1532 5.27189 17.9016 5.5177 17.9016 5.8218C17.9016 6.12591 18.1532 6.37172 18.4632 6.37172C20.0115 6.37172 21.2712 5.13826 21.2712 3.62214C21.2712 2.10602 20.0115 0.872559 18.4632 0.872559C18.1532 0.872559 17.9016 1.11837 17.9016 1.42247C17.9016 1.72658 18.1532 1.97239 18.4632 1.97239Z" fill="white"/>
<path d="M5.54626 14.6201H17.9016C18.2116 14.6201 18.4632 14.3742 18.4632 14.0701C18.4632 13.766 18.2116 13.5202 17.9016 13.5202H5.54626C5.23625 13.5202 4.98465 13.766 4.98465 14.0701C4.98465 14.3742 5.23625 14.6201 5.54626 14.6201Z" fill="white"/>
<path d="M28.0105 22.3192H19.5864C19.2764 22.3192 19.0248 22.565 19.0248 22.8691C19.0248 23.1732 19.2764 23.419 19.5864 23.419H28.0105C28.3205 23.419 28.5721 23.1732 28.5721 22.8691C28.5721 22.565 28.3205 22.3192 28.0105 22.3192Z" fill="white"/>
<path d="M5.54626 19.0198H11.1623C11.4723 19.0198 11.7239 18.774 11.7239 18.4699C11.7239 18.1657 11.4723 17.9199 11.1623 17.9199H5.54626C5.23625 17.9199 4.98465 18.1657 4.98465 18.4699C4.98465 18.774 5.23625 19.0198 5.54626 19.0198Z" fill="white"/>
<path d="M28.0106 26.7185H22.3945C22.0845 26.7185 21.8329 26.9643 21.8329 27.2684C21.8329 27.5725 22.0845 27.8183 22.3945 27.8183H28.0106C28.3206 27.8183 28.5722 27.5725 28.5722 27.2684C28.5722 26.9643 28.3206 26.7185 28.0106 26.7185Z" fill="white"/>
<path d="M16.2168 18.4699C16.2168 18.774 16.4684 19.0198 16.7784 19.0198H25.2025C25.5125 19.0198 25.7641 18.774 25.7641 18.4699C25.7641 18.1657 25.5125 17.9199 25.2025 17.9199H16.7784C16.4684 17.9199 16.2168 18.1657 16.2168 18.4699Z" fill="white"/>
<path d="M14.3691 18.8605C14.4702 18.7561 14.532 18.6131 14.532 18.4701C14.532 18.3266 14.4702 18.1836 14.3691 18.0797C14.1613 17.8762 13.7794 17.8762 13.5716 18.0797C13.4706 18.1836 13.4088 18.3266 13.4088 18.4701C13.4088 18.6131 13.4706 18.7561 13.5716 18.8605C13.6784 18.9645 13.8244 19.02 13.9704 19.02C14.1164 19.02 14.2624 18.9645 14.3691 18.8605Z" fill="white"/>
<path d="M7.79263 22.8691C7.79263 23.1732 8.04423 23.419 8.35424 23.419H16.7784C17.0884 23.419 17.34 23.1732 17.34 22.8691C17.34 22.565 17.0884 22.3192 16.7784 22.3192H8.35424C8.04423 22.3192 7.79263 22.565 7.79263 22.8691Z" fill="white"/>
<path d="M5.54626 23.4195C5.69228 23.4195 5.83829 23.359 5.945 23.26C6.04609 23.1555 6.10786 23.0126 6.10786 22.8696C6.10786 22.7261 6.04609 22.5831 5.945 22.4846C5.7372 22.2757 5.35531 22.2757 5.14752 22.4791C5.04643 22.5831 4.98465 22.7261 4.98465 22.8696C4.98465 23.0126 5.04643 23.1555 5.14752 23.26C5.25422 23.359 5.39462 23.4195 5.54626 23.4195Z" fill="white"/>
<path d="M28.0105 19.02C28.1566 19.02 28.3026 18.9645 28.4093 18.8605C28.516 18.7561 28.5722 18.6131 28.5722 18.4701C28.5722 18.3266 28.516 18.1836 28.4093 18.0797C28.1959 17.8762 27.8196 17.8762 27.6118 18.0797C27.5107 18.1836 27.4489 18.3266 27.4489 18.4701C27.4489 18.6131 27.5107 18.7561 27.6118 18.8605C27.7185 18.9645 27.8645 19.02 28.0105 19.02Z" fill="white"/>
<path d="M19.5864 26.7185H5.54626C5.23625 26.7185 4.98465 26.9643 4.98465 27.2684C4.98465 27.5725 5.23625 27.8183 5.54626 27.8183H19.5864C19.8964 27.8183 20.148 27.5725 20.148 27.2684C20.148 26.9643 19.8964 26.7185 19.5864 26.7185Z" fill="white"/>
</svg>
