<svg width="114" height="30" viewBox="0 0 114 30" fill="none" xmlns="http://www.w3.org/2000/svg">
<rect x="0.540527" y="13.8726" width="31.7971" height="1.54334" rx="0.771672" fill="#E3B873"/>
<rect x="82.0205" y="13.8726" width="31.7971" height="1.54334" rx="0.771672" fill="#E3B873"/>
<path d="M62.966 9.43274L58.1206 7.97899C57.7568 7.87047 57.3829 7.83226 57.0125 7.84579V7.83332H51.1233L40.6796 4.36279L40.7111 19.0377L43.7091 20.5363L45.4842 16.1968L48.0773 17.2343L48.7496 15.5539L49.7234 16.5277L48.8149 17.4364C48.4991 17.7522 48.3182 18.1889 48.3182 18.6357C48.3182 19.5501 49.0473 20.2935 49.9542 20.3256C49.9858 21.2118 50.6982 21.9243 51.5844 21.9558C51.616 22.842 52.3284 23.5544 53.2146 23.586C53.2472 24.4929 53.9902 25.222 54.9048 25.222C55.3513 25.222 55.7883 25.0411 56.1038 24.7253L57.0125 23.8169L57.3776 24.182C57.6934 24.4977 58.1301 24.6787 58.5769 24.6787C59.4915 24.6787 60.2347 23.9495 60.2668 23.0426C61.153 23.011 61.8654 22.2986 61.897 21.4124C62.7832 21.3809 63.4956 20.6684 63.5272 19.7822C64.4341 19.7496 65.1635 19.0067 65.1635 18.0923C65.1635 18.0151 65.151 17.939 65.1407 17.8623L65.9205 17.0825L66.5507 18.3433L69.9639 16.6365L72.0266 20.5745L74.4013 18.9921V4.94732L62.966 9.43274ZM43.1461 19.0398L41.7969 18.3651L41.7695 5.87014L47.7241 7.84924L43.1461 19.0398ZM47.472 15.8214L45.8952 15.1909L48.7578 8.19258L50.3156 8.71051L47.472 15.8214ZM49.405 18.6357C49.405 18.4752 49.4694 18.3184 49.583 18.2046L50.5385 17.2494C50.652 17.1358 50.8091 17.0711 50.9694 17.0711C51.3053 17.0711 51.5786 17.3446 51.5786 17.6803C51.5786 17.8405 51.5138 17.9976 51.4003 18.1112L50.4451 19.0666C50.3315 19.1802 50.1744 19.2447 50.0142 19.2447C49.6783 19.2447 49.405 18.9714 49.405 18.6357ZM51.0352 20.2659C51.0352 20.1054 51.0996 19.9486 51.2132 19.8348L52.1687 18.8796C52.2822 18.766 52.4393 18.7013 52.5996 18.7013C52.9355 18.7013 53.2088 18.9748 53.2088 19.3105C53.2088 19.4707 53.144 19.6278 53.0305 19.7414L52.0753 20.6968C51.9617 20.8104 51.8046 20.8749 51.6444 20.8749C51.3085 20.8749 51.0352 20.6016 51.0352 20.2659ZM52.6654 21.8961C52.6654 21.7356 52.7298 21.5788 52.8434 21.465L53.7989 20.5098C53.9124 20.3962 54.0695 20.3315 54.2297 20.3315C54.5657 20.3315 54.8389 20.605 54.8389 20.9407C54.8389 21.1009 54.7742 21.258 54.6606 21.3716L53.7055 22.327C53.5919 22.4406 53.4348 22.5051 53.2746 22.5051C52.9386 22.5051 52.6654 22.2318 52.6654 21.8961ZM56.2908 23.0018L55.3356 23.9572C55.2221 24.0708 55.065 24.1353 54.9048 24.1353C54.5688 24.1353 54.2956 23.862 54.2956 23.5263C54.2956 23.3658 54.36 23.209 54.4736 23.0952L55.429 22.14C55.5426 22.0264 55.6997 21.9617 55.8599 21.9617C56.1959 21.9617 56.4691 22.2352 56.4691 22.5709C56.4691 22.7311 56.4044 22.8882 56.2908 23.0018ZM63.4675 18.7013C63.3072 18.7013 63.1502 18.6368 63.0366 18.5232L58.4835 13.9699L57.7151 14.7383L62.2682 19.2914C62.3818 19.4052 62.4465 19.562 62.4465 19.7225C62.4465 20.0582 62.1732 20.3315 61.8373 20.3315C61.6771 20.3315 61.52 20.267 61.4064 20.1534L56.8533 15.6001L56.0849 16.3685L60.638 20.9216C60.7516 21.0354 60.8163 21.1922 60.8163 21.3527C60.8163 21.6884 60.543 21.9617 60.2071 21.9617C60.0469 21.9617 59.8898 21.8972 59.7762 21.7836L55.2231 17.2303L54.4547 17.9987L59.0078 22.5518C59.1214 22.6656 59.1861 22.8224 59.1861 22.9829C59.1861 23.3186 58.9128 23.5919 58.5769 23.5919C58.4167 23.5919 58.2596 23.5274 58.146 23.4138L57.5331 22.8006C57.544 22.7248 57.5559 22.6486 57.5559 22.5709C57.5559 21.6563 56.8265 20.9131 55.9196 20.881C55.8881 19.9948 55.1757 19.2824 54.2894 19.2508C54.2579 18.3646 53.5455 17.6522 52.6593 17.6206C52.6266 16.7137 51.884 15.9843 50.9694 15.9843C50.8922 15.9843 50.816 15.9968 50.7396 16.0071L49.1882 14.4557L51.4029 8.92012H54.6139L52.6187 10.9157C52.2979 11.2357 52.122 11.6618 52.122 12.115C52.122 13.05 52.8827 13.8107 53.818 13.8107C54.2645 13.8107 54.7015 13.6297 55.017 13.314L56.4567 11.874C56.7512 11.5806 57.2699 11.5692 57.5766 11.8502L58.847 13.0147C59.2692 13.4016 59.7383 13.7234 60.2403 13.9755L63.8984 17.6612C64.012 17.775 64.0767 17.9318 64.0767 18.0923C64.0767 18.428 63.8034 18.7013 63.4675 18.7013ZM64.6201 16.8461L62.3866 14.5955C62.5861 14.6144 62.7872 14.6258 62.9899 14.6258V13.539C61.7248 13.539 60.5141 13.068 59.5817 12.2131L58.3111 11.0491C57.5939 10.3906 56.3773 10.4168 55.6888 11.1062L54.2494 12.5459C54.1353 12.6589 53.9782 12.7239 53.818 12.7239C53.482 12.7239 53.2088 12.4506 53.2088 12.115C53.2088 11.9518 53.2716 11.7992 53.3868 11.6838L55.4582 9.61263C56.0669 9.00396 56.981 8.77233 57.808 9.02015L62.6084 10.4601L65.4073 16.0588L64.6201 16.8461ZM67.0365 16.8854L63.7419 10.2956L66.1481 9.35154L69.4595 15.6736L67.0365 16.8854ZM73.3145 18.4107L72.4285 19.0014L67.166 8.95275L73.3145 6.54116V18.4107Z" fill="#E3B873"/>
<circle cx="60.2067" cy="1.57397" r="0.485591" fill="#E3B873"/>
<circle cx="47.9498" cy="24.5032" r="0.485591" fill="#E3B873"/>
<circle cx="50.0079" cy="26.1916" r="0.485591" fill="#E3B873"/>
<circle cx="52.3566" cy="27.4304" r="0.485591" fill="#E3B873"/>
<circle cx="54.9054" cy="28.2229" r="0.485591" fill="#E3B873"/>
<circle cx="62.754" cy="2.34692" r="0.485591" fill="#E3B873"/>
<circle cx="65.1031" cy="3.60131" r="0.485591" fill="#E3B873"/>
<path d="M67.3704 2.89941V5.70111H64.537" stroke="#E3B873" stroke-linecap="round" stroke-linejoin="round"/>
<path d="M45.5503 24.1865L45.5503 21.9197L47.8143 21.9197" stroke="#E3B873" stroke-linecap="round" stroke-linejoin="round"/>
<path d="M48.3407 4.88243C49.8758 3.54661 50.8523 2.93205 52.6918 2.2138C54.6432 1.45186 55.9636 1.27294 58.084 1.27295" stroke="#E3B873" stroke-linecap="round"/>
<path d="M68.9445 22.3709C67.8033 24.1511 65.6776 25.8893 63.9488 26.8437C62.1149 27.8563 60.1501 28.4268 57.533 28.5632" stroke="#E3B873" stroke-linecap="round"/>
</svg>
