<svg width="41" height="35" viewBox="0 0 41 35" fill="none" xmlns="http://www.w3.org/2000/svg">
<path d="M21.2371 24.7206C20.8608 24.7206 20.5542 25.0202 20.5542 25.3917V26.7163C20.5542 27.0878 20.8608 27.3873 21.2371 27.3873C21.6134 27.3873 21.92 27.0878 21.92 26.7163V25.3917C21.92 25.0202 21.6134 24.7206 21.2371 24.7206Z" fill="white" stroke="white" stroke-width="0.1"/>
<path d="M37.8499 15.4428L37.8499 15.4428C37.4015 13.285 36.3962 11.251 34.9425 9.56032C33.5429 7.93273 31.7522 6.65144 29.7552 5.84376C29.4283 4.5078 28.7427 3.13017 27.3971 2.09274C26.0873 1.08292 24.7682 0.888251 24.7092 0.879923L24.7092 0.879914C24.5138 0.852592 24.3153 0.90965 24.1656 1.03699C24.016 1.16437 23.9298 1.3493 23.9298 1.54422V4.84776H21.7201C21.1344 2.93383 19.3242 1.53565 17.1867 1.53565C15.0021 1.53565 13.1583 2.99579 12.6154 4.97475C9.48727 5.40056 6.61019 6.89133 4.47336 9.20479L4.51009 9.23872L4.47335 9.20479C2.21845 11.6463 0.976459 14.8071 0.976459 18.1048C0.976459 25.4943 4.88534 31.5045 6.08294 33.1701C6.46189 33.6972 7.08211 34.0115 7.7418 34.0115H10.4356C11.5558 34.0115 12.4688 33.1171 12.4688 32.0156V31.214C13.1343 31.3117 13.8099 31.3618 14.4863 31.3618H20.5543V32.0156C20.5543 33.1171 21.4672 34.0115 22.5875 34.0115H25.5465C26.4983 34.0115 27.3346 33.3488 27.5343 32.434L27.8524 30.9775C32.0022 29.9759 35.3401 27.1194 36.9931 23.4129H39.4648C40.2128 23.4129 40.8228 22.8157 40.8228 22.0795V16.78C40.8228 16.4235 40.6813 16.0884 40.4246 15.8366C40.1682 15.585 39.8273 15.4465 39.4649 15.4465H39.4649H39.4648H39.4648H39.4648H39.4647H39.4647H39.4647L37.851 15.4467C37.8505 15.4454 37.8501 15.4441 37.8499 15.4428ZM39.457 22.0293H39.457V22.0708H37.5051C37.8387 21.0272 38.0443 19.9313 38.104 18.802C38.1237 18.431 37.8331 18.1162 37.4573 18.0971C37.0816 18.0784 36.7596 18.3614 36.74 18.7324C36.4745 23.755 33.0083 28.0484 28.1754 29.4987L29.0416 25.5324C29.121 25.1691 28.8849 24.8129 28.5168 24.7355C28.1491 24.6579 27.7854 24.8879 27.7062 25.2509L26.1989 32.1524C26.1336 32.4511 25.8595 32.6694 25.5465 32.6694H22.5873C22.2185 32.6694 21.92 32.3751 21.92 32.0156V29.3658C21.92 28.9943 21.6134 28.6948 21.2371 28.6948C20.8608 28.6948 20.5542 28.9943 20.5542 29.3658V30.0197H14.4861C13.8087 30.0197 13.1325 29.9637 12.4686 29.855V25.3914C12.4686 25.0199 12.162 24.7204 11.7857 24.7204C11.4094 24.7204 11.1028 25.0199 11.1028 25.3914V32.0156C11.1028 32.3752 10.8043 32.6695 10.4355 32.6695H7.7418C7.52077 32.6695 7.32325 32.5695 7.19848 32.3958L7.19847 32.3958C6.05884 30.8106 2.34229 25.0967 2.34229 18.1047C2.34229 15.1412 3.45821 12.3008 5.48474 10.1067L5.44801 10.0728L5.48474 10.1067C7.32655 8.11244 9.77981 6.79835 12.4569 6.35614C12.4718 6.7441 12.536 7.12763 12.647 7.4974H12.4609C12.0846 7.4974 11.778 7.79692 11.778 8.16843C11.778 8.53993 12.0846 8.83945 12.4609 8.83945H21.9123C22.2886 8.83945 22.5952 8.53993 22.5952 8.16843C22.5952 7.79692 22.2886 7.4974 21.9123 7.4974H21.7261C21.853 7.07485 21.9192 6.63439 21.9201 6.18974H23.9297V7.50596C23.9297 7.87746 24.2364 8.17699 24.6126 8.17699C24.9889 8.17699 25.2956 7.87746 25.2956 7.50596V2.4321C25.8863 2.66134 26.7054 3.10976 27.3867 3.96495C28.0938 4.8525 28.6554 6.18194 28.6554 8.1685C28.6554 8.54001 28.9621 8.83953 29.3383 8.83953C29.7146 8.83953 30.0213 8.54001 30.0213 8.1685C30.0213 7.93068 30.0134 7.68091 29.9955 7.42313C31.4849 8.14794 32.8212 9.17289 33.8992 10.4266C35.2057 11.9461 36.109 13.7735 36.5117 15.7113C36.6414 16.336 37.2001 16.7889 37.8402 16.7888L39.457 16.7887V22.0293ZM17.1866 2.87779C19.0444 2.87779 20.5542 4.36068 20.5542 6.18133C20.5542 6.63615 20.4573 7.08444 20.2743 7.49755L14.0988 7.49755C13.9159 7.08429 13.8189 6.63615 13.8189 6.18133C13.8189 4.36061 15.3288 2.87779 17.1866 2.87779Z" fill="white" stroke="white" stroke-width="0.1"/>
<path d="M28.7607 15.8829L28.7607 15.8829C29.1615 14.8282 30.2206 14.1218 31.3947 14.1218C32.5688 14.1218 33.6281 14.8283 34.0287 15.8829C34.1609 16.2309 33.9802 16.6173 33.6272 16.7465C33.6272 16.7465 33.6272 16.7465 33.6272 16.7465L28.7607 15.8829ZM28.7607 15.8829C28.6284 16.231 28.8091 16.6173 29.1622 16.7465M28.7607 15.8829L29.1622 16.7465M29.1622 16.7465C29.5149 16.8756 29.9082 16.6999 30.0402 16.3523L29.1622 16.7465Z" fill="white" stroke="white" stroke-width="0.1"/>
<path d="M20.1165 18.5181C19.4692 18.0763 18.6345 17.8056 17.8695 17.5933V14.5144C18.4604 14.5915 18.9603 14.7638 19.3142 14.9765C19.6828 15.1981 19.8791 15.4544 19.8791 15.683C19.8791 16.0545 20.1858 16.354 20.5621 16.354C20.9383 16.354 21.245 16.0545 21.245 15.683C21.245 15.0275 20.8734 14.4414 20.2629 13.9981C19.6619 13.5618 18.8259 13.2607 17.8695 13.1628V13.1368C17.8695 12.7653 17.5628 12.4657 17.1866 12.4657C16.8103 12.4657 16.5037 12.7653 16.5037 13.1368V13.1628C15.5472 13.2607 14.7113 13.5618 14.1103 13.9981C13.4998 14.4414 13.1282 15.0275 13.1282 15.683C13.1282 16.6103 13.5966 17.2412 14.2566 17.6917C14.9039 18.1335 15.7386 18.4042 16.5037 18.6165V21.6955C15.9128 21.6183 15.4129 21.4461 15.059 21.2334C14.6903 21.0118 14.494 20.7555 14.494 20.5269C14.494 20.1554 14.1874 19.8559 13.8111 19.8559C13.4348 19.8559 13.1282 20.1554 13.1282 20.5269C13.1282 21.1823 13.4998 21.7685 14.1103 22.2117C14.7113 22.6481 15.5472 22.9492 16.5037 23.047V23.0731C16.5037 23.4446 16.8103 23.7441 17.1866 23.7441C17.5628 23.7441 17.8695 23.4446 17.8695 23.0731V23.047C18.8259 22.9492 19.6619 22.6481 20.2629 22.2117C20.8734 21.7685 21.245 21.1823 21.245 20.5269C21.245 19.5995 20.7765 18.9686 20.1165 18.5181ZM16.5037 14.5144V17.2104C15.761 16.9781 15.2607 16.757 14.9446 16.5157C14.6228 16.2701 14.494 16.0052 14.494 15.683C14.494 15.4544 14.6903 15.1981 15.059 14.9765C15.4129 14.7638 15.9128 14.5915 16.5037 14.5144ZM19.3141 21.2335C18.9602 21.4462 18.4603 21.6184 17.8695 21.6956V18.9996C18.6121 19.2318 19.1125 19.4529 19.4285 19.6942C19.7503 19.9399 19.8791 20.2047 19.8791 20.527C19.8791 20.7556 19.6828 21.0119 19.3141 21.2335Z" fill="white" stroke="white" stroke-width="0.1"/>
</svg>
